<svg xmlns="http://www.w3.org/2000/svg" width="960" height="600" viewBox="0 0 960 600"><rect width="960" height="600" fill="#F7F3EC"/><circle cx="880" cy="50" r="210" fill="#FFE2CD"/><g font-family="Arial,sans-serif" font-weight="700"><text x="48" y="54" font-size="15" fill="#202020">0→1 JOURNAL</text><rect x="90" y="130" width="340" height="300" rx="12" fill="#fff" stroke="#202020" stroke-width="2"/><rect x="118" y="157" width="282" height="162" rx="12" fill="#DDE8DD" stroke="#202020" stroke-width="2"/><path d="M130 295L200 225L245 270L320 195L385 295" fill="none" stroke="#668267" stroke-width="9" stroke-linecap="round" stroke-linejoin="round"/><text x="120" y="365" font-size="26" fill="#202020">IMAGE</text><rect x="535" y="130" width="335" height="135" rx="12" fill="#FFE2CD" stroke="#202020" stroke-width="2"/><text x="565" y="183" font-size="25" fill="#202020">MEANING</text><text x="565" y="225" font-size="25" fill="#202020">alt=&quot;...&quot;</text><rect x="535" y="295" width="335" height="135" rx="12" fill="#fff" stroke="#202020" stroke-width="2"/><text x="565" y="348" font-size="25" fill="#202020">DECORATION</text><text x="565" y="390" font-size="25" fill="#202020">alt=&quot;&quot;</text><path d="M445 275H490V195H520M490 275V360H520" fill="none" stroke="#EF663C" stroke-width="5" stroke-linecap="round" stroke-linejoin="round"/><text x="48" y="548" font-size="34" fill="#202020">DESCRIBE THE PURPOSE</text><text x="48" y="580" font-size="12" fill="#202020">ACCESSIBILITY</text></g></svg>
