<svg xmlns="http://www.w3.org/2000/svg" width="960" height="600" viewBox="0 0 960 600"><defs><pattern id="grid" width="32" height="32" patternUnits="userSpaceOnUse"><path d="M32 0H0V32" fill="none" stroke="#141414" stroke-opacity=".045"/></pattern><filter id="shadow" x="-30%" y="-30%" width="160%" height="180%"><feDropShadow dx="0" dy="18" stdDeviation="16" flood-color="#222" flood-opacity=".10"/></filter></defs><rect width="960" height="600" fill="#F3DEDC"/><rect width="960" height="600" fill="url(#grid)"/><circle cx="790" cy="64" r="220" fill="white" opacity=".3"/><text x="48" y="54" font-family="Arial,sans-serif" font-size="15" font-weight="700" letter-spacing="3" fill="#282828">0→1 JOURNAL</text><text x="48" y="550" font-family="Arial,sans-serif" font-size="34" font-weight="800" letter-spacing="-1" fill="#181818">SHOW YOUR PROCESS</text><text x="912" y="551" text-anchor="end" font-family="Arial,sans-serif" font-size="12" letter-spacing="1" fill="#444">06 / PORTFOLIO</text><g filter="url(#shadow)"><rect x="99" y="155" width="226" height="271" rx="12" fill="#fff"/></g><text x="120" y="191" font-family="monospace" font-size="14" fill="#7E4442">01 / THINK</text><rect x="120" y="218" width="184" height="121" rx="7" fill="#F0E5E1"/><path d="M120 366h156m-156 20h117" stroke="#CEC9C5" stroke-width="7"/><g filter="url(#shadow)"><rect x="357" y="133" width="226" height="271" rx="12" fill="#fff"/></g><text x="378" y="169" font-family="monospace" font-size="14" fill="#7E4442">02 / MAKE</text><rect x="378" y="196" width="184" height="121" rx="7" fill="#E8C9C6"/><path d="M378 344h156m-156 20h117" stroke="#CEC9C5" stroke-width="7"/><g filter="url(#shadow)"><rect x="615" y="155" width="226" height="271" rx="12" fill="#fff"/></g><text x="636" y="191" font-family="monospace" font-size="14" fill="#7E4442">03 / REFINE</text><rect x="636" y="218" width="184" height="121" rx="7" fill="#CC8D87"/><path d="M636 366h156m-156 20h117" stroke="#CEC9C5" stroke-width="7"/></svg>